HIERARCHY
ROOT Hips
{
	OFFSET 0.00 0.00 0.00
	CHANNELS 6 Xposition Yposition Zposition Xrotation Yrotation Zrotation
	JOINT Spine
	{
		OFFSET 0.00000 1.15266 1.72900
		CHANNELS 3 Xrotation Yrotation Zrotation
		JOINT Spine1
		{
			OFFSET 0.00000 0.40032 2.27031
			CHANNELS 3 Xrotation Yrotation Zrotation
			JOINT Spine2
			{
				OFFSET 0.00000 0.20092 2.29656
				CHANNELS 3 Xrotation Yrotation Zrotation
				JOINT Spine3
				{
					OFFSET 0.00000 0.00000 2.30533
					CHANNELS 3 Xrotation Yrotation Zrotation
					JOINT Neck
					{
						OFFSET 0.00000 -0.86449 6.05149
						CHANNELS 3 Xrotation Yrotation Zrotation
						JOINT Head
						{
							OFFSET 0.00000 -0.55043 3.12167
							CHANNELS 3 Xrotation Yrotation Zrotation
							End Site
							{
								OFFSET 0.00000 0.00000 3.73175
							}
						}
					}
					JOINT RightShoulder
					{
						OFFSET -0.78828 -1.31380 4.25672
						CHANNELS 3 Xrotation Yrotation Zrotation
						JOINT RightArm
						{
							OFFSET -3.91513 0.00000 0.00000
							CHANNELS 3 Xrotation Yrotation Zrotation
							JOINT RightForeArm
							{
								OFFSET -6.91491 0.00000 0.00000
								CHANNELS 3 Xrotation Yrotation Zrotation
								JOINT RightHand
								{
									OFFSET -6.09622 0.00000 0.00000
									CHANNELS 3 Xrotation Yrotation Zrotation
									JOINT RightHandEnd
									{
										OFFSET -1.74995 0.00000 0.00000
										CHANNELS 3 Xrotation Yrotation Zrotation
										End Site
										{
											OFFSET -1.74995 0.00000 0.00000
										}
									}
									JOINT RightHandThumb1
									{
										OFFSET -0.69998 -1.16663 -0.46665
										CHANNELS 3 Yrotation Xrotation Zrotation
										End Site
										{
											OFFSET -1.69032 -0.45292 0.00000
										}
									}
								}
							}
						}
					}
					JOINT LeftShoulder
					{
						OFFSET 0.78828 -1.31380 4.25672
						CHANNELS 3 Xrotation Yrotation Zrotation
						JOINT LeftArm
						{
							OFFSET 3.91513 0.00000 0.00000
							CHANNELS 3 Xrotation Yrotation Zrotation
							JOINT LeftForeArm
							{
								OFFSET 6.91491 0.00000 0.00000
								CHANNELS 3 Xrotation Yrotation Zrotation
								JOINT LeftHand
								{
									OFFSET 6.09622 0.00000 0.00000
									CHANNELS 3 Xrotation Yrotation Zrotation
									JOINT LeftHandEnd
									{
										OFFSET 1.74995 0.00000 0.00000
										CHANNELS 3 Xrotation Yrotation Zrotation
										End Site
										{
											OFFSET 1.74995 0.00000 0.00000
										}
									}
									JOINT LeftHandThumb1
									{
										OFFSET 0.69998 -1.16663 -0.46665
										CHANNELS 3 Yrotation Xrotation Zrotation
										End Site
										{
											OFFSET 1.69032 -0.45292 0.00000
										}
									}
								}
							}
						}
					}
				}
			}
		}
	}
	JOINT RightUpLeg
	{
		OFFSET -2.33857 0.00000 -0.68318
		CHANNELS 3 Xrotation Yrotation Zrotation
		JOINT RightLeg
		{
			OFFSET 0.00000 0.00000 -10.74496
			CHANNELS 3 Xrotation Yrotation Zrotation
			JOINT RightFoot
			{
				OFFSET 0.00000 0.00000 -10.93085
				CHANNELS 3 Xrotation Yrotation Zrotation
				JOINT RightToeBase
				{
					OFFSET 0.00000 -4.08727 -1.48765
					CHANNELS 3 Xrotation Yrotation Zrotation
					End Site
					{
						OFFSET 0.00000 -1.89187 -0.00000
					}
				}
			}
		}
	}
	JOINT LeftUpLeg
	{
		OFFSET 2.33857 0.00000 -0.68318
		CHANNELS 3 Xrotation Yrotation Zrotation
		JOINT LeftLeg
		{
			OFFSET 0.00000 0.00000 -10.74496
			CHANNELS 3 Xrotation Yrotation Zrotation
			JOINT LeftFoot
			{
				OFFSET 0.00000 0.00000 -10.93085
				CHANNELS 3 Xrotation Yrotation Zrotation
				JOINT LeftToeBase
				{
					OFFSET 0.00000 -4.08727 -1.48765
					CHANNELS 3 Xrotation Yrotation Zrotation
					End Site
					{
						OFFSET 0.00000 -1.89187 -0.00000
					}
				}
			}
		}
	}
}
MOTION
Frames: 18
Frame Time: 0.008342
 0.2060 57.5092 19.9735 -16.5735 -0.0449 -168.1182 44.3798 -2.7126 -1.1466 11.7920 -1.1751 0.7892 10.3164 9.3455 17.4603 -0.2588 5.2031 -1.0552 -15.6326 1.8316 -6.1650 -4.7202 -1.1849 -24.8656 -14.1925 21.2080 27.8102 -28.7855 -15.1306 9.1133 0.0000 0.0000 20.8174 -18.3186 28.6438 3.5847 0.0000 -0.0000 0.0000 0.0000 0.0000 0.0000 4.5649 6.4358 -3.2216 51.9920 49.2668 -52.4251 -0.0000 -0.0000 -22.4561 -10.0723 -28.1962 -10.3769 -0.0000 0.0000 -0.0000 0.0000 -0.0000 -0.0000 -45.1129 -5.9199 8.2545 79.3289 0.0000 0.0000 -42.3042 2.3554 2.6607 -1.2235 0.0000 -0.0000 -67.1372 0.1644 13.2405 28.7807 0.0000 0.0000 4.1986 9.4469 -26.0808 -7.3231 0.0000 -0.0000
 0.1033 57.7395 19.9365 -16.9408 0.3426 -168.5609 44.3886 -2.3915 -1.4159 11.7525 -1.0544 0.8087 10.3109 9.4993 17.3999 -0.2552 5.2958 -1.1469 -15.6313 1.9372 -6.0546 -4.7470 -1.2238 -24.8606 -14.1812 21.2377 27.8906 -28.9751 -15.0678 8.9630 0.0000 0.0000 21.0163 -18.1247 28.6444 3.6284 -0.0000 0.0000 0.0000 -0.0000 -0.0000 0.0000 4.4780 6.3939 -3.2474 51.8887 49.2663 -52.4559 -0.0000 -0.0000 -22.1490 -10.0774 -28.1495 -10.3017 -0.0000 -0.0000 0.0000 -0.0000 -0.0000 0.0000 -44.8127 -5.6924 8.8727 79.7278 0.0000 0.0000 -42.7127 2.0579 2.7690 -1.5639 0.0000 -0.0000 -67.6242 0.3933 13.0834 29.6504 0.0000 0.0000 5.3139 8.7195 -25.9186 -7.1657 0.0000 -0.0000
 0.0010 57.9740 19.8963 -17.2693 0.7673 -169.0126 44.4198 -2.0609 -1.6716 11.7278 -0.9256 0.8290 10.3225 9.6621 17.3060 -0.2492 5.3971 -1.2503 -15.6424 2.0346 -5.9274 -4.7664 -1.2707 -24.8819 -14.1805 21.2496 27.9782 -29.1453 -14.9955 8.8132 0.0000 0.0000 21.2047 -17.9629 28.6385 3.6759 -0.0000 -0.0000 0.0000 0.0000 -0.0000 -0.0000 4.3749 6.3331 -3.2768 51.7905 49.2287 -52.5287 -0.0000 -0.0000 -21.7975 -10.1238 -28.1487 -10.3082 0.0000 0.0000 0.0000 0.0000 -0.0000 -0.0000 -44.4453 -5.4819 9.5603 80.1219 0.0000 0.0000 -43.1606 1.7985 2.8203 -1.8818 0.0000 -0.0000 -68.2135 0.5466 13.0601 30.9096 0.0000 0.0000 6.4358 7.8061 -25.6474 -6.7675 0.0000 -0.0000
 -0.0996 58.2128 19.8533 -17.5474 1.2009 -169.4767 44.4783 -1.7348 -1.8889 11.7198 -0.7946 0.8447 10.3471 9.8373 17.1875 -0.2344 5.5013 -1.3644 -15.6659 2.1287 -5.8201 -4.7811 -1.3251 -24.8927 -14.1827 21.2486 28.0707 -29.3129 -14.9081 8.6588 0.0000 0.0000 21.3810 -17.8551 28.6248 3.7318 0.0000 0.0000 -0.0000 0.0000 0.0000 0.0000 4.2613 6.2624 -3.3120 51.7004 49.1309 -52.6503 -0.0000 -0.0000 -21.4007 -10.2214 -28.2125 -10.4237 0.0000 0.0000 0.0000 0.0000 -0.0000 -0.0000 -43.9953 -5.3170 10.2998 80.4921 0.0000 0.0000 -43.6460 1.6021 2.8053 -2.1744 0.0000 -0.0000 -68.8777 0.6065 13.1612 32.4905 0.0000 0.0000 7.4975 6.7456 -25.2785 -6.0895 0.0000 -0.0000
 -0.1976 58.4552 19.8081 -17.7893 1.6267 -169.9567 44.5464 -1.4159 -2.0624 11.7279 -0.6638 0.8552 10.3885 10.0232 17.0512 -0.2099 5.6072 -1.4865 -15.6995 2.2232 -5.7058 -4.7956 -1.3805 -24.9216 -14.1819 21.2434 28.1662 -29.4931 -14.8065 8.5008 0.0000 0.0000 21.5391 -17.8098 28.6105 3.7971 0.0000 -0.0000 -0.0000 0.0000 -0.0000 0.0000 4.1513 6.2008 -3.3534 51.5931 48.9499 -52.7976 -0.0000 -0.0000 -20.9822 -10.3598 -28.3490 -10.6434 0.0000 -0.0000 0.0000 -0.0000 0.0000 0.0000 -43.4779 -5.2110 11.0827 80.8283 0.0000 0.0000 -44.1599 1.4860 2.7187 -2.4374 0.0000 -0.0000 -69.5988 0.5656 13.3781 34.3072 0.0000 0.0000 8.4343 5.5985 -24.8303 -5.1531 0.0000 -0.0000
 -0.2923 58.7000 19.7621 -18.0121 2.0248 -170.4466 44.6128 -1.1139 -2.1876 11.7479 -0.5377 0.8595 10.4450 10.2185 16.9038 -0.1746 5.7139 -1.6147 -15.7406 2.3222 -5.5810 -4.8147 -1.4339 -24.9723 -14.1747 21.2410 28.2634 -29.6996 -14.6927 8.3351 0.0000 0.0000 21.6797 -17.8256 28.5997 3.8704 0.0000 -0.0000 -0.0000 -0.0000 -0.0000 0.0000 4.0583 6.1627 -3.4005 51.4473 48.6686 -52.9511 -0.0000 -0.0000 -20.5674 -10.5396 -28.5708 -10.9667 0.0000 -0.0000 0.0000 -0.0000 0.0000 0.0000 -42.9125 -5.1729 11.8912 81.1187 0.0000 0.0000 -44.6850 1.4632 2.5567 -2.6685 0.0000 -0.0000 -70.3586 0.4254 13.6853 36.2739 0.0000 0.0000 9.1849 4.4344 -24.3307 -4.0431 0.0000 -0.0000
 -0.3833 58.9454 19.7169 -18.2518 2.3881 -170.9370 44.6576 -0.8341 -2.2744 11.7727 -0.4145 0.8630 10.5097 10.4151 16.7484 -0.1252 5.8274 -1.7471 -15.7889 2.4249 -5.4713 -4.8408 -1.4826 -25.0203 -14.1601 21.2453 28.3583 -29.9461 -14.5717 8.1562 0.0000 0.0000 21.8066 -17.8995 28.5881 3.9548 0.0000 0.0000 -0.0000 0.0000 0.0000 -0.0000 3.9871 6.1551 -3.4538 51.2491 48.2790 -53.0927 -0.0000 -0.0000 -20.1808 -10.7535 -28.8757 -11.3794 0.0000 -0.0000 0.0000 -0.0000 -0.0000 0.0000 -42.3416 -5.1950 12.7145 81.3590 0.0000 0.0000 -45.1992 1.5366 2.3204 -2.8602 0.0000 -0.0000 -71.1530 0.2010 14.0620 38.3052 0.0000 0.0000 9.6992 3.3146 -23.8112 -2.8900 0.0000 -0.0000
 -0.4694 59.1898 19.6743 -18.5206 2.6927 -171.4068 44.6814 -0.5917 -2.3178 11.7937 -0.3069 0.8599 10.5809 10.6141 16.5905 -0.0661 5.9362 -1.8815 -15.8412 2.5411 -5.3540 -4.8774 -1.5219 -25.0879 -14.1330 21.2689 28.4508 -30.2228 -14.4363 7.9718 0.0000 0.0000 21.9151 -18.0329 28.5782 4.0466 0.0000 0.0000 0.0000 -0.0000 -0.0000 -0.0000 3.9437 6.1848 -3.5105 50.9899 47.7855 -53.2146 -0.0000 -0.0000 -19.8445 -10.9959 -29.2597 -11.8688 0.0000 0.0000 -0.0000 0.0000 0.0000 -0.0000 -41.7823 -5.2820 13.5180 81.5384 0.0000 0.0000 -45.6740 1.7048 2.0072 -3.0125 0.0000 -0.0000 -71.9661 -0.0910 14.4664 40.3379 0.0000 0.0000 9.9363 2.2829 -23.3143 -1.8187 0.0000 -0.0000
 -0.5504 59.4313 19.6362 -18.8491 2.9283 -171.8383 44.6734 -0.3968 -2.3252 11.8039 -0.2228 0.8508 10.6496 10.8146 16.4315 0.0020 6.0441 -2.0158 -15.8948 2.6779 -5.2312 -4.9288 -1.5637 -25.1744 -14.0967 21.3143 28.5387 -30.5369 -14.2937 7.7768 0.0000 0.0000 22.0110 -18.2021 28.5691 4.1474 0.0000 -0.0000 -0.0000 0.0000 -0.0000 -0.0000 3.9351 6.2504 -3.5660 50.6590 47.1911 -53.3066 -0.0000 -0.0000 -19.5850 -11.2621 -29.7078 -12.4097 0.0000 0.0000 0.0000 0.0000 -0.0000 -0.0000 -41.2740 -5.4276 14.2800 81.6547 0.0000 0.0000 -46.0807 1.9555 1.6186 -3.1184 0.0000 -0.0000 -72.8001 -0.4277 14.8742 42.3147 0.0000 0.0000 9.8754 1.3534 -22.8786 -0.9297 0.0000 -0.0000
 -0.6275 59.6674 19.6045 -19.2897 3.1286 -172.2178 44.6022 -0.2308 -2.3316 11.7960 -0.1410 0.8455 10.7162 10.9906 16.2675 0.0778 6.1535 -2.1525 -15.9584 2.8156 -5.1231 -4.9867 -1.5751 -25.2557 -14.0541 21.3855 28.6245 -30.8699 -14.1357 7.5735 0.0000 0.0000 22.0934 -18.3819 28.5508 4.2365 0.0000 -0.0000 -0.0000 0.0000 -0.0000 0.0000 3.9462 6.3478 -3.6149 50.2654 46.5214 -53.3676 -0.0000 -0.0000 -19.4123 -11.5450 -30.2112 -12.9833 0.0000 0.0000 0.0000 -0.0000 -0.0000 0.0000 -40.8816 -5.5826 15.0077 81.7216 0.0000 0.0000 -46.3980 2.2575 1.1653 -3.1873 0.0000 -0.0000 -73.6651 -0.7645 15.3055 44.1647 0.0000 0.0000 9.5259 0.5166 -22.5288 -0.2647 0.0000 -0.0000
 -0.6987 59.8977 19.5807 -19.8258 3.2447 -172.5272 44.4918 -0.1294 -2.3075 11.7696 -0.0911 0.8284 10.7711 11.1632 16.1040 0.1527 6.2608 -2.2856 -16.0223 2.9688 -5.0026 -5.0604 -1.5809 -25.3638 -14.0151 21.4829 28.7053 -31.2121 -13.9745 7.3635 0.0000 0.0000 22.1655 -18.5578 28.5293 4.3242 0.0000 0.0000 0.0000 -0.0000 -0.0000 0.0000 3.9862 6.4693 -3.6566 49.7970 45.7982 -53.3798 -0.0000 -0.0000 -19.3605 -11.8354 -30.7468 -13.5570 0.0000 0.0000 0.0000 -0.0000 -0.0000 0.0000 -40.5925 -5.7865 15.6485 81.7246 0.0000 0.0000 -46.5986 2.6000 0.6355 -3.2082 0.0000 -0.0000 -74.5475 -1.1005 15.7059 45.8770 0.0000 0.0000 8.9012 -0.2488 -22.3015 0.1665 0.0000 0.0000
 -0.7651 60.1210 19.5663 -20.4727 3.3093 -172.7582 44.3390 -0.0760 -2.2783 11.7211 -0.0490 0.8129 10.8151 11.3025 15.9341 0.2301 6.3625 -2.4218 -16.0942 3.1427 -4.8880 -5.1457 -1.5856 -25.4754 -13.9756 21.6073 28.7849 -31.5437 -13.7873 7.1523 0.0000 0.0000 22.2285 -18.7324 28.4944 4.4054 0.0000 -0.0000 -0.0000 0.0000 -0.0000 -0.0000 4.0261 6.5951 -3.6786 49.2983 45.0593 -53.3855 -0.0000 -0.0000 -19.4068 -12.1281 -31.2872 -14.1235 -0.0000 -0.0000 -0.0000 0.0000 0.0000 -0.0000 -40.4282 -5.9982 16.2060 81.6736 0.0000 0.0000 -46.6733 2.9511 0.0359 -3.1870 0.0000 -0.0000 -75.4338 -1.3986 16.0972 47.4052 0.0000 0.0000 8.0508 -0.9691 -22.2036 0.3965 0.0000 0.0000
 -0.8265 60.3372 19.5623 -21.2215 3.3194 -172.9090 44.1570 -0.0667 -2.2435 11.6564 -0.0433 0.7890 10.8419 11.4368 15.7593 0.2992 6.4615 -2.5525 -16.1720 3.3153 -4.7702 -5.2422 -1.5718 -25.6046 -13.9553 21.7528 28.8630 -31.8494 -13.5931 6.9350 0.0000 0.0000 22.2833 -18.8613 28.4541 4.4661 -0.0000 -0.0000 0.0000 -0.0000 -0.0000 0.0000 4.0723 6.7188 -3.6839 48.7527 44.3307 -53.3566 -0.0000 -0.0000 -19.5794 -12.4174 -31.8202 -14.6582 0.0000 -0.0000 0.0000 0.0000 0.0000 0.0000 -40.3823 -6.2210 16.6673 81.5673 0.0000 0.0000 -46.6149 3.2915 -0.6405 -3.1253 0.0000 -0.0000 -76.3098 -1.6506 16.4734 48.7352 0.0000 0.0000 7.0341 -1.6635 -22.2413 0.4715 0.0000 0.0000
 -0.8834 60.5462 19.5693 -22.0664 3.2907 -172.9821 43.9510 -0.0955 -2.2107 11.5774 -0.0488 0.7649 10.8530 11.5410 15.5781 0.3632 6.5564 -2.6832 -16.2594 3.4957 -4.6609 -5.3477 -1.5572 -25.7369 -13.9520 21.9154 28.9426 -32.1183 -13.3741 6.7138 0.0000 0.0000 22.3329 -18.9594 28.3988 4.5127 -0.0000 0.0000 0.0000 -0.0000 0.0000 0.0000 4.0975 6.8223 -3.6667 48.2033 43.6482 -53.3269 -0.0000 -0.0000 -19.8515 -12.6819 -32.3216 -15.1476 0.0000 0.0000 -0.0000 0.0000 0.0000 0.0000 -40.4505 -6.4378 17.0312 81.4085 0.0000 0.0000 -46.4272 3.6039 -1.3943 -3.0335 0.0000 -0.0000 -77.1623 -1.8426 16.8422 49.8510 0.0000 0.0000 5.9270 -2.3400 -22.4026 0.4420 0.0000 0.0000
 -0.9356 60.7487 19.5873 -22.9789 3.2189 -172.9839 43.7414 -0.1643 -2.1717 11.4888 -0.0640 0.7384 10.8491 11.6180 15.3919 0.4195 6.6431 -2.8139 -16.3578 3.6758 -4.5493 -5.4622 -1.5369 -25.8818 -13.9697 22.0908 29.0271 -32.3372 -13.1259 6.4907 0.0000 0.0000 22.3714 -19.0278 28.3348 4.5441 0.0000 0.0000 0.0000 0.0000 -0.0000 0.0000 4.0884 6.8897 -3.6223 47.6776 43.0409 -53.3183 -0.0000 -0.0000 -20.2031 -12.9212 -32.7779 -15.5931 -0.0000 0.0000 -0.0000 -0.0000 0.0000 0.0000 -40.6019 -6.6558 17.2864 81.1921 0.0000 0.0000 -46.1183 3.8849 -2.2334 -2.9212 0.0000 -0.0000 -77.9721 -1.9762 17.1914 50.7599 0.0000 0.0000 4.8029 -2.9942 -22.6707 0.3523 0.0000 0.0000
 -0.9835 60.9453 19.6162 -23.9417 3.1157 -172.9288 43.5394 -0.2599 -2.1330 11.3975 -0.0894 0.7108 10.8290 11.6714 15.2053 0.4645 6.7302 -2.9398 -16.4628 3.8452 -4.4445 -5.5867 -1.5123 -26.0350 -14.0167 22.2698 29.1163 -32.5122 -12.8577 6.2535 0.0000 0.0000 22.4105 -19.0531 28.2666 4.5503 0.0000 -0.0000 -0.0000 -0.0000 -0.0000 0.0000 4.0488 6.9209 -3.5606 47.1727 42.5230 -53.3135 -0.0000 -0.0000 -20.6312 -13.1169 -33.1864 -15.9825 -0.0000 -0.0000 0.0000 -0.0000 0.0000 0.0000 -40.8154 -6.8710 17.4403 80.9165 0.0000 0.0000 -45.7032 4.1365 -3.1623 -2.8024 0.0000 -0.0000 -78.7296 -2.0569 17.5254 51.4728 0.0000 0.0000 3.7295 -3.6171 -23.0190 0.2399 0.0000 0.0000
 -1.0273 61.1367 19.6550 -24.9318 2.9861 -172.8321 43.3542 -0.3761 -2.0925 11.3076 -0.1211 0.6819 10.7960 11.7084 15.0231 0.5003 6.8121 -3.0630 -16.5753 3.9998 -4.3435 -5.7199 -1.4857 -26.1957 -14.0889 22.4505 29.2125 -32.6468 -12.5643 6.0054 0.0000 0.0000 22.4417 -19.0583 28.1988 4.5417 0.0000 -0.0000 0.0000 0.0000 -0.0000 -0.0000 3.9713 6.9048 -3.4770 46.7171 42.1047 -53.3406 -0.0000 -0.0000 -21.1032 -13.2549 -33.5416 -16.3123 -0.0000 -0.0000 -0.0000 -0.0000 0.0000 -0.0000 -41.0640 -7.0845 17.4951 80.5786 0.0000 0.0000 -45.1998 4.3712 -4.1827 -2.6929 0.0000 -0.0000 -79.4277 -2.0939 17.8383 52.0114 0.0000 0.0000 2.7602 -4.1938 -23.4158 0.1302 0.0000 0.0000
 -1.0678 61.3236 19.7028 -25.9270 2.8459 -172.7106 43.1983 -0.4961 -2.0569 11.2236 -0.1563 0.6528 10.7481 11.7309 14.8532 0.5290 6.8900 -3.1809 -16.6904 4.1392 -4.2497 -5.8628 -1.4617 -26.3624 -14.1843 22.6275 29.3157 -32.7518 -12.2459 5.7410 0.0000 0.0000 22.4676 -19.0606 28.1347 4.5269 -0.0000 0.0000 -0.0000 -0.0000 -0.0000 -0.0000 3.8566 6.8458 -3.3803 46.3234 41.7850 -53.3983 -0.0000 -0.0000 -21.5963 -13.3201 -33.8494 -16.5799 0.0000 -0.0000 0.0000 0.0000 -0.0000 0.0000 -41.3195 -7.2888 17.4634 80.1768 0.0000 0.0000 -44.6280 4.6075 -5.2919 -2.6069 0.0000 -0.0000 -80.0579 -2.0956 18.1339 52.4006 0.0000 0.0000 1.9263 -4.7116 -23.8273 0.0425 0.0000 0.0000
